HIERARCHY
ROOT root
{
	OFFSET 0.000000 0.000000 0.000000
	CHANNELS 6 Xposition Yposition Zposition Zrotation Yrotation Xrotation
	JOINT lhip
	{
		OFFSET 0.058581 -0.082280 -0.017664
		CHANNELS 3 Zrotation Yrotation Xrotation
		JOINT lknee
		{
			OFFSET 0.043451 -0.386469 0.008037
			CHANNELS 3 Zrotation Yrotation Xrotation
			JOINT lankle
			{
				OFFSET -0.014790 -0.426874 -0.037428
				CHANNELS 3 Zrotation Yrotation Xrotation
				JOINT ltoe
				{
					OFFSET 0.041054 -0.060286 0.122042
					CHANNELS 3 Zrotation Yrotation Xrotation
					End Site
					{
						OFFSET 0.000000 0.000000 0.000000
					}
				}
			}
		}
	}
	JOINT rhip
	{
		OFFSET -0.060310 -0.090513 -0.013543
		CHANNELS 3 Zrotation Yrotation Xrotation
		JOINT rknee
		{
			OFFSET -0.043257 -0.383688 -0.004843
			CHANNELS 3 Zrotation Yrotation Xrotation
			JOINT rankle
			{
				OFFSET 0.019056 -0.420046 -0.034562
				CHANNELS 3 Zrotation Yrotation Xrotation
				JOINT rtoe
				{
					OFFSET -0.034840 -0.062106 0.130323
					CHANNELS 3 Zrotation Yrotation Xrotation
					End Site
					{
						OFFSET 0.000000 0.000000 0.000000
					}
				}
			}
		}
	}
	JOINT lowerback
	{
		OFFSET 0.004439 0.124404 -0.038385
		CHANNELS 3 Zrotation Yrotation Xrotation
		JOINT upperback
		{
			OFFSET 0.004488 0.137956 0.026820
			CHANNELS 3 Zrotation Yrotation Xrotation
			JOINT chest
			{
				OFFSET -0.002265 0.056032 0.002855
				CHANNELS 3 Zrotation Yrotation Xrotation
				JOINT lowerneck
				{
					OFFSET -0.013390 0.211636 -0.033468
					CHANNELS 3 Zrotation Yrotation Xrotation
					JOINT upperneck
					{
						OFFSET 0.010113 0.088937 0.050410
						CHANNELS 3 Zrotation Yrotation Xrotation
						End Site
						{
							OFFSET 0.000000 0.000000 0.000000
						}
					}
				}
				JOINT lclavicle
				{
					OFFSET 0.071702 0.114000 -0.018898
					CHANNELS 3 Zrotation Yrotation Xrotation
					JOINT lshoulder
					{
						OFFSET 0.122921 0.045205 -0.019046
						CHANNELS 3 Zrotation Yrotation Xrotation
						JOINT lelbow
						{
							OFFSET 0.255332 -0.015649 -0.022946
							CHANNELS 3 Zrotation Yrotation Xrotation
							JOINT lwrist
							{
								OFFSET 0.265709 0.012698 -0.007375
								CHANNELS 3 Zrotation Yrotation Xrotation
								End Site
								{
									OFFSET 0.000000 0.000000 0.000000
								}
							}
						}
					}
				}
				JOINT rclavicle
				{
					OFFSET -0.082954 0.112472 -0.023707
					CHANNELS 3 Zrotation Yrotation Xrotation
					JOINT rshoulder
					{
						OFFSET -0.113228 0.046853 -0.008472
						CHANNELS 3 Zrotation Yrotation Xrotation
						JOINT relbow
						{
							OFFSET -0.260127 -0.014369 -0.031269
							CHANNELS 3 Zrotation Yrotation Xrotation
							JOINT rwrist
							{
								OFFSET -0.269108 0.006794 -0.006027
								CHANNELS 3 Zrotation Yrotation Xrotation
								End Site
								{
									OFFSET 0.000000 0.000000 0.000000
								}
							}
						}
					}
				}
			}
		}
	}
}
MOTION
Frames: 17
Frame Time: 0.033333
-0.418272 0.191355 0.978258 85.630957 -0.475684 89.368993 5.403551 -1.925692 -7.694518 -4.436614 -7.642900 21.751724 0.799850 6.910160 -15.919124 0.000000 -0.000000 0.000000 4.959608 -2.770634 -6.122735 0.891403 -3.731006 15.130781 -2.341204 -6.602929 -16.654555 0.000000 -0.000000 0.000000 1.417875 0.903246 1.235195 2.734502 -3.880858 1.604701 -0.549341 -2.996539 1.726239 1.055021 -5.966694 0.918175 -0.853520 -10.054002 2.021774 -17.907670 7.141474 -0.421870 -70.078350 -11.356483 12.924708 8.072375 -12.905403 16.182234 -11.375679 4.474853 -13.359547 14.098099 -4.107783 -4.012640 66.400331 7.663114 15.415448 -7.183491 19.894586 6.722594 14.449240 2.694455 -26.248258 
-0.416638 0.190533 0.977956 86.361732 -0.518413 89.263083 5.296863 -2.173307 -7.519772 -4.401170 -8.279433 21.565758 0.822868 7.016633 -16.037530 0.000000 -0.000000 0.000000 4.919734 -2.754019 -5.735405 1.030073 -3.907650 14.850848 -2.228159 -7.243013 -16.689509 0.000000 -0.000000 0.000000 1.421398 0.769460 1.129567 2.723009 -3.744200 1.744045 -0.436765 -2.911727 2.006243 1.000451 -6.012344 0.334395 -0.889046 -10.213119 2.184334 -17.746200 6.867427 -0.659390 -70.115646 -12.099791 13.294636 8.120342 -13.760310 16.445009 -11.986800 4.149427 -13.603873 13.849917 -4.382917 -4.258679 66.426722 7.372290 15.593686 -6.877343 19.650173 7.162784 14.977512 2.649169 -25.683603 
-0.415441 0.189601 0.977962 87.012000 -0.560277 89.297977 5.402568 -2.197325 -7.586084 -4.540307 -8.399343 21.484270 0.731163 6.609196 -15.885607 0.000000 -0.000000 0.000000 4.934398 -3.043568 -5.604934 0.985850 -4.079754 14.685242 -2.242473 -7.316884 -16.617471 0.000000 -0.000000 0.000000 1.420023 0.856840 1.026896 2.762182 -3.765742 1.752896 -0.410934 -2.941084 1.967470 0.922339 -5.999983 0.248928 -0.924118 -10.244855 2.180990 -17.661124 6.618908 -0.701308 -69.892771 -12.700900 13.533789 8.163896 -14.948963 16.652250 -12.185486 4.066833 -13.654365 13.866148 -4.428101 -4.171987 66.243137 7.283106 15.391953 -6.715447 18.791216 7.271995 15.332631 2.489738 -25.314507 
-0.414166 0.188676 0.978061 87.816287 -0.588816 89.423460 5.620866 -2.151435 -7.713896 -4.818433 -8.714928 21.256770 0.591154 6.166852 -15.738167 0.000000 -0.000000 0.000000 5.011013 -3.325304 -5.555324 0.859914 -4.407380 14.467459 -2.123410 -7.379114 -16.569635 0.000000 -0.000000 0.000000 1.409654 0.697828 1.132668 2.758043 -3.807870 1.428089 -0.355849 -2.837670 1.775110 0.741263 -5.665853 0.390908 -0.899634 -10.060685 2.338668 -17.472706 6.562262 -0.781855 -69.547981 -13.123152 13.735453 8.212874 -16.958525 17.060097 -12.392646 3.719742 -13.722152 13.762107 -4.288367 -3.986760 66.233422 7.116419 15.083231 -6.796542 17.201835 6.978510 15.676515 2.171797 -24.891764 
-0.413612 0.188339 0.978117 88.255089 -0.597190 89.404662 5.655531 -2.374551 -7.797534 -4.876417 -8.799676 21.374073 0.537626 6.071479 -15.806961 0.000000 -0.000000 0.000000 5.007180 -3.593164 -5.481024 0.870960 -4.673280 14.425482 -2.094140 -7.385781 -16.611359 0.000000 -0.000000 0.000000 1.467167 0.719985 1.273554 2.734393 -3.829187 1.245905 -0.363825 -2.875880 1.749701 0.753645 -5.679326 0.293112 -0.889805 -10.146767 2.457970 -17.427457 6.504930 -0.819841 -69.272253 -13.473882 13.897643 8.366183 -18.162886 17.239097 -12.543168 3.425407 -13.848309 13.814168 -4.244400 -4.094328 66.171639 7.074194 14.875888 -6.843303 16.149627 6.653880 15.850579 2.262681 -24.798382 
-0.413046 0.187632 0.977899 88.674059 -0.656491 89.445962 5.667729 -2.499709 -7.963586 -4.986861 -9.000598 21.516997 0.498349 6.010995 -15.826021 0.000000 -0.000000 0.000000 4.968202 -3.568123 -5.460749 0.925590 -4.932880 14.378311 -2.108391 -7.582522 -16.716708 0.000000 -0.000000 0.000000 1.413445 0.676880 1.291006 2.726796 -3.778469 1.264422 -0.350207 -2.861494 1.701167 0.753188 -5.552010 -0.000077 -0.907133 -10.210167 2.550761 -17.283373 6.290342 -0.895302 -68.973127 -13.842730 14.077011 8.638960 -19.674735 17.129669 -12.452106 3.176968 -13.937198 13.847029 -4.071533 -4.077774 66.157272 7.206820 14.570629 -7.138134 14.840156 5.873477 16.007697 2.191656 -24.620561 
-0.412631 0.187066 0.977871 88.844122 -0.695387 89.440398 5.655046 -2.596009 -8.034558 -5.003940 -9.050130 21.629067 0.544739 6.000117 -15.954159 0.000000 -0.000000 0.000000 4.945516 -3.564615 -5.454512 0.924565 -5.063066 14.472477 -2.037800 -7.531917 -16.824593 0.000000 -0.000000 0.000000 1.457416 0.746329 1.628740 2.657134 -3.601083 1.018511 -0.307417 -2.898498 1.598560 0.838290 -5.368886 -0.170278 -1.110961 -10.067720 2.551697 -17.316992 6.141067 -1.051311 -68.548453 -14.167759 14.147182 8.712472 -20.980482 17.188229 -12.492190 2.930460 -13.773255 13.944804 -3.935916 -4.068901 65.928073 7.158630 14.400278 -7.258133 14.135688 5.166684 15.810544 2.158997 -24.630381 
-0.412290 0.186572 0.977565 88.826993 -0.703025 89.458712 5.638748 -2.648441 -8.125962 -4.989536 -9.028049 21.826564 0.665547 6.098607 -16.089362 0.000000 -0.000000 0.000000 4.971522 -3.551357 -5.512551 0.913628 -5.033235 14.603551 -1.994328 -7.528425 -16.937148 0.000000 -0.000000 0.000000 1.477036 0.814387 1.734827 2.647145 -3.488482 0.993177 -0.295828 -2.788128 1.641389 0.829385 -4.940531 -0.346474 -1.203678 -9.673083 2.851958 -17.153140 5.963385 -1.203051 -68.472075 -14.509840 14.256071 8.918634 -21.904810 17.033857 -12.286361 3.002790 -13.970291 13.999018 -3.828105 -4.027441 65.773798 7.341011 14.312935 -7.365022 13.910769 4.820872 15.688200 2.105236 -24.697754 
-0.411987 0.186206 0.977351 88.704389 -0.693166 89.361566 5.634348 -2.807215 -8.078620 -5.003357 -8.923322 22.053074 0.695538 6.336218 -16.283289 0.000000 -0.000000 0.000000 4.992559 -3.430090 -5.402308 0.977290 -5.057398 14.607839 -2.006009 -7.702858 -16.991046 0.000000 -0.000000 0.000000 1.570088 0.863606 2.025937 2.583293 -3.372248 0.930744 -0.274140 -2.788702 1.697884 0.874881 -4.117378 -0.421580 -1.308144 -8.857542 3.515724 -16.991314 5.622908 -1.201147 -68.412031 -14.713829 14.239878 9.251237 -22.593209 16.581447 -11.980336 2.936022 -14.034398 13.888272 -3.596624 -4.022026 65.689614 7.461605 14.303690 -7.293674 14.055840 4.557617 15.384838 2.211285 -24.794792 
-0.410933 0.185918 0.977294 88.530666 -0.709643 89.136954 5.590479 -2.742145 -7.788836 -4.964926 -8.916974 22.146965 0.673774 6.399478 -16.369173 0.000000 -0.000000 0.000000 4.976749 -3.306949 -5.026408 0.972817 -5.077355 14.500714 -2.028683 -7.683897 -17.090930 0.000000 -0.000000 0.000000 1.602388 0.776956 2.445842 2.541759 -3.316729 0.750330 -0.266116 -2.658227 1.647439 0.974707 -2.358120 0.220400 -1.491269 -7.183909 5.005824 -16.974366 5.471677 -1.108807 -68.232302 -14.978558 14.077687 9.311486 -22.914544 16.332867 -11.803506 2.798551 -13.834573 14.003547 -3.482216 -3.840231 65.476519 7.740323 14.515791 -7.334209 14.616887 4.632242 15.486986 2.305460 -25.120921 
-0.410349 0.185538 0.977250 88.177420 -0.707475 89.172965 5.680241 -2.617623 -7.826452 -5.036236 -8.769913 22.312691 0.802851 6.407879 -16.383494 0.000000 -0.000000 0.000000 5.020835 -3.412182 -5.025711 0.976610 -4.823178 14.470963 -2.020221 -7.510733 -17.074885 0.000000 -0.000000 0.000000 1.678339 0.784864 2.570682 2.538709 -3.322055 0.512719 -0.318616 -2.651969 1.612639 0.972109 -0.529722 1.217834 -1.628796 -5.230565 6.673112 -16.900160 5.353526 -0.950664 -68.184500 -14.880884 13.982406 9.371483 -22.758431 16.140781 -11.518061 2.812632 -13.943089 14.041237 -3.469106 -3.702448 65.523767 8.128968 14.774848 -7.278317 15.009462 4.705086 14.983132 2.375150 -25.449451 
-0.410051 0.185303 0.977170 87.712598 -0.710471 89.267069 5.704759 -2.497359 -7.895911 -5.053879 -8.549982 22.411947 0.934662 6.534861 -16.459523 0.000000 -0.000000 0.000000 5.046739 -3.526807 -5.232344 0.912113 -4.541816 14.684666 -1.987743 -7.132983 -17.165065 0.000000 -0.000000 0.000000 1.800200 0.820279 2.566966 2.481836 -3.295372 0.221127 -0.425279 -2.590307 1.730020 1.169972 1.562925 2.615268 -1.728820 -3.193754 8.502407 -16.808029 5.346551 -0.930904 -68.240026 -14.857463 13.885851 9.329192 -22.232968 15.901852 -11.273262 3.012363 -13.622642 14.042569 -3.589468 -3.515042 65.727625 8.610910 15.029795 -7.334981 15.444887 4.471204 14.742944 2.630523 -26.023345 
-0.409496 0.185262 0.977209 87.398944 -0.712172 89.158958 5.711307 -2.504449 -7.696194 -5.082091 -8.366513 22.394477 1.008609 6.728876 -16.288194 0.000000 -0.000000 0.000000 5.011017 -3.451207 -5.158887 0.963294 -4.459475 14.793555 -2.053045 -7.111105 -17.245330 0.000000 -0.000000 0.000000 1.862647 0.804283 2.593978 2.553369 -3.343748 0.249277 -0.468690 -2.553314 1.789576 1.438255 3.585245 4.287720 -1.847123 -1.201513 10.293607 -16.827214 5.223475 -0.864307 -68.432311 -14.854259 13.801282 9.252752 -21.387301 15.662319 -10.949775 3.423991 -13.727608 14.099261 -3.678643 -3.213258 65.825544 9.297361 15.383012 -7.662461 16.168704 4.754961 14.610259 2.583040 -26.272477 
-0.408695 0.185251 0.976933 86.986457 -0.778812 89.095701 5.620631 -2.491081 -7.582366 -5.041022 -8.147899 22.481211 1.024626 6.829917 -16.250414 0.000000 -0.000000 0.000000 4.909729 -3.284681 -5.131629 0.954824 -4.314591 14.916009 -2.038337 -6.988930 -17.419706 0.000000 -0.000000 0.000000 1.859439 0.786103 2.706670 2.606876 -3.330336 0.202311 -0.479741 -2.489318 1.812535 1.746793 5.453240 6.089136 -2.039281 0.723741 12.044849 -16.852181 5.267220 -0.694453 -68.698702 -14.813639 13.654712 9.323511 -20.554260 15.488110 -10.876235 3.250411 -13.612224 14.160953 -3.885285 -2.946131 65.937640 9.855403 15.756588 -7.956414 17.008103 5.111425 14.708160 2.940015 -26.604923 
-0.407950 0.185585 0.976817 86.687592 -0.795808 88.982436 5.586133 -2.308341 -7.455019 -5.055355 -8.025459 22.639367 0.956146 6.880983 -16.138921 0.000000 -0.000000 0.000000 4.846153 -3.138647 -4.996776 0.986139 -4.188717 14.994026 -2.136456 -7.008444 -17.498309 0.000000 -0.000000 0.000000 1.978590 0.720613 2.939143 2.595405 -3.238304 0.118582 -0.481975 -2.471363 1.979467 1.996486 7.077288 7.915731 -2.086052 2.620143 13.446780 -16.891294 5.283128 -0.587496 -68.974597 -14.609546 13.599808 9.228570 -19.903234 15.590644 -10.698677 3.476373 -13.941422 14.093167 -4.068655 -2.683357 66.083498 10.320917 16.035552 -7.980702 17.993473 5.374495 14.269896 2.963184 -27.139455 
-0.407478 0.185841 0.976609 86.414763 -0.828773 88.963927 5.501904 -2.453714 -7.460785 -5.032017 -7.840079 22.874729 1.086295 7.170737 -16.201929 0.000000 -0.000000 0.000000 4.798610 -3.003291 -5.003422 0.976307 -4.082871 15.111699 -2.152841 -6.938235 -17.502293 0.000000 -0.000000 0.000000 2.083902 0.763550 3.170853 2.563747 -3.200592 0.099885 -0.557142 -2.427925 2.094052 2.323702 8.388183 9.592515 -1.962447 4.027266 14.577556 -16.864938 5.360861 -0.372123 -69.190706 -14.558218 13.546380 9.078933 -19.356279 15.527961 -10.483913 3.524918 -13.732459 14.101446 -4.183885 -2.533219 66.286715 10.598840 16.379843 -8.118742 18.710186 5.489581 13.791024 3.290080 -27.399772 
-0.406706 0.186105 0.976362 86.401796 -0.874781 89.015955 5.482219 -2.441919 -7.639111 -5.131334 -7.552335 23.183977 1.187988 7.205755 -16.218371 0.000000 -0.000000 0.000000 4.715910 -3.058611 -5.067794 0.964426 -4.125471 15.242484 -2.135397 -6.885629 -17.608365 0.000000 -0.000000 0.000000 2.123967 0.854965 3.133533 2.581446 -3.208617 0.314562 -0.588510 -2.405706 2.355465 2.554118 9.366095 10.940735 -1.922684 5.042902 15.322644 -16.793277 5.411557 -0.391361 -69.530681 -14.447322 13.678299 8.847884 -18.850398 15.724952 -10.229259 3.600537 -13.863127 13.996286 -4.400222 -2.406640 66.493502 10.868941 16.669648 -8.140023 19.365620 5.729973 13.468688 3.439088 -27.567930 
